HIERARCHY
ROOT Hips
{
 OFFSET 0.000000 0.000000 0.000000
 CHANNELS 6 Xposition Yposition Zposition Yrotation Xrotation Zrotation
 JOINT Chest
 {
  OFFSET 0.000000 9.581000 -0.001100
  CHANNELS 3 Yrotation Xrotation Zrotation
  JOINT Chest2
  {
   OFFSET 0.000000 9.561100 0.002200
   CHANNELS 3 Yrotation Xrotation Zrotation
   JOINT Chest3
   {
    OFFSET 0.000000 9.521100 0.000000
    CHANNELS 3 Yrotation Xrotation Zrotation
    JOINT Chest4
    {
     OFFSET 0.000000 9.511400 0.000000
     CHANNELS 3 Yrotation Xrotation Zrotation
     JOINT Neck
     {
      OFFSET 0.000000 14.375100 0.000000
      CHANNELS 3 Yrotation Xrotation Zrotation
      JOINT Head
      {
       OFFSET 0.000000 8.901200 0.004600
       CHANNELS 3 Yrotation Xrotation Zrotation
       End Site
       {
        OFFSET 0.000000 16.962200 0.002400
       }
      }
     }
     JOINT RightCollar
     {
      OFFSET -2.920100 9.518800 0.000000
      CHANNELS 3 Yrotation Xrotation Zrotation
      JOINT RightShoulder
      {
       OFFSET -13.664500 0.000000 0.000000
       CHANNELS 3 Yrotation Xrotation Zrotation
       JOINT RightElbow
       {
        OFFSET 0.000000 -29.999200 0.000000
        CHANNELS 3 Yrotation Xrotation Zrotation
        JOINT RightWrist
        {
         OFFSET 0.000000 -24.253600 0.000000
         CHANNELS 3 Yrotation Xrotation Zrotation
         End Site
         {
          OFFSET 0.000000 -17.918900 0.000000
         }
        }
       }
      }
     }
     JOINT LeftCollar
     {
      OFFSET 2.920100 9.518800 0.000000
      CHANNELS 3 Yrotation Xrotation Zrotation
      JOINT LeftShoulder
      {
       OFFSET 13.664500 0.000000 0.000000
       CHANNELS 3 Yrotation Xrotation Zrotation
       JOINT LeftElbow
       {
        OFFSET 0.000000 -29.999200 0.000000
        CHANNELS 3 Yrotation Xrotation Zrotation
        JOINT LeftWrist
        {
         OFFSET 0.000000 -24.253600 0.000000
         CHANNELS 3 Yrotation Xrotation Zrotation
         End Site
         {
          OFFSET 0.000000 -17.918900 0.000000
         }
        }
       }
      }
     }
    }
   }
  }
 }
 JOINT RightHip
 {
  OFFSET -7.797300 0.005300 0.000500
  CHANNELS 3 Yrotation Xrotation Zrotation
  JOINT RightKnee
  {
   OFFSET 0.000000 -40.663400 -0.000500
   CHANNELS 3 Yrotation Xrotation Zrotation
   JOINT RightAnkle
   {
    OFFSET 0.000000 -39.523700 -0.000900
    CHANNELS 3 Yrotation Xrotation Zrotation
    JOINT RightToe
    {
     OFFSET 0.000000 -6.418000 14.485300
     CHANNELS 3 Yrotation Xrotation Zrotation
     End Site
     {
      OFFSET 0.000000 -1.465200 6.326400
     }
    }
   }
  }
 }
 JOINT LeftHip
 {
  OFFSET 7.797300 0.005300 0.000500
  CHANNELS 3 Yrotation Xrotation Zrotation
  JOINT LeftKnee
  {
   OFFSET 0.000000 -40.663400 -0.000500
   CHANNELS 3 Yrotation Xrotation Zrotation
   JOINT LeftAnkle
   {
    OFFSET 0.000000 -39.523700 -0.000900
    CHANNELS 3 Yrotation Xrotation Zrotation
    JOINT LeftToe
    {
     OFFSET 0.000000 -6.418000 14.485300
     CHANNELS 3 Yrotation Xrotation Zrotation
     End Site
     {
      OFFSET 0.000000 -1.465200 6.326400
     }
    }
   }
  }
 }
}
MOTION
Frames: 5
Frame Time: 0.008333
-15.304247 126.886830 17.901454 172.420083 -45.503612 -4.191878 3.101472 25.195834 2.942733 0.381509 4.053899 0.377769 0.648372 6.485432 0.607438 2.467236 20.876095 2.266440 3.811783 11.654194 -3.427307 4.923769 -13.373664 -4.598445 0.183622 1.648606 2.341740 -0.424952 -6.220132 -9.305829 -95.965804 -70.242907 144.128050 6.540676 9.594238 3.199548 -10.317927 -1.176307 0.368314 -4.740429 -7.023668 11.686393 59.100766 -59.389699 -106.302368 2.704366 -3.921342 16.046497 -3.549027 -24.095511 0.732124 -51.709488 86.122762 -53.925937 7.035216 -12.528890 3.447458 -0.003910 0.002367 -0.001732 0.025570 -25.726369 0.382639 37.794138 83.693005 42.478860 -0.794630 -16.946646 -3.600017 -0.004878 0.000621 -0.002161
-15.302338 126.887562 17.903450 172.402594 -45.521175 -4.170119 3.117183 25.215114 2.933909 0.402888 4.070736 0.368774 0.657285 6.499513 0.603632 2.488901 20.888561 2.255560 3.778878 11.579823 -3.510288 4.911301 -13.451175 -4.683888 0.168354 1.582295 2.371825 -0.336484 -6.228941 -9.362605 -95.988562 -70.277246 144.102519 6.529832 9.603668 3.150914 -10.360835 -1.223889 0.411880 -4.720865 -7.023462 11.749776 59.089656 -59.328334 -106.292266 2.702341 -3.918436 16.002281 -3.544930 -24.086154 0.725339 -51.823336 86.116931 -54.043508 7.051743 -12.524191 3.438547 -0.001240 0.000990 -0.000550 0.027788 -25.708027 0.396995 37.695849 83.697231 42.358998 -0.807336 -16.946699 -3.599082 -0.001694 0.001009 -0.000751
-15.301250 126.887893 17.905526 172.379426 -45.534674 -4.141393 3.147935 25.235626 2.919030 0.427733 4.095250 0.355245 0.674824 6.523345 0.596449 2.471994 20.851319 2.280193 3.759019 11.531337 -3.614411 4.898438 -13.525972 -4.769653 0.214965 1.514263 2.351564 -0.319087 -6.208792 -9.380133 -95.986588 -70.315164 144.088435 6.519997 9.614267 3.090644 -10.377547 -1.263897 0.411937 -4.698098 -6.999851 11.809143 59.087406 -59.298944 -106.318605 2.710049 -3.911650 15.980538 -3.542853 -24.085237 0.721891 -51.981378 86.116718 -54.217740 7.049489 -12.519619 3.444003 -0.002849 -0.002127 -0.001262 0.044712 -25.693615 0.395199 37.591373 83.690428 42.248646 -0.817166 -16.938798 -3.608223 -0.000052 -0.000325 -0.000023
-15.300082 126.888561 17.907085 172.357062 -45.549544 -4.115608 3.191166 25.264761 2.904431 0.418619 4.094091 0.361993 0.681919 6.534309 0.593247 2.478464 20.845190 2.283102 3.734697 11.483173 -3.714566 4.886326 -13.598494 -4.856307 0.261208 1.449144 2.330788 -0.325101 -6.186505 -9.382274 -95.973887 -70.361156 144.095361 6.515669 9.629260 3.019314 -10.391096 -1.291480 0.428067 -4.678343 -6.987341 11.845546 59.079409 -59.275426 -106.336102 2.730113 -3.852732 15.905652 -3.528321 -24.077318 0.715838 -52.061429 86.115693 -54.302197 7.047124 -12.515621 3.444980 -0.004750 -0.000946 -0.002105 0.062379 -25.676697 0.394491 37.505247 83.690117 42.157381 -0.823003 -16.938067 -3.611343 0.001323 -0.000462 0.000586
-15.298794 126.889402 17.908264 172.337014 -45.564064 -4.094390 3.210122 25.282129 2.896297 0.420626 4.097640 0.361065 0.694226 6.551318 0.587055 2.499625 20.862156 2.267448 3.698027 11.409720 -3.789498 4.873955 -13.669219 -4.944143 0.278277 1.371535 2.339686 -0.355499 -6.160880 -9.364050 -95.974773 -70.430149 144.164429 6.514455 9.650234 2.942827 -10.415186 -1.331715 0.476434 -4.676795 -6.981509 11.854879 58.980904 -59.287401 -106.196033 2.754679 -3.867519 15.785237 -3.518727 -24.069805 0.713003 -52.092391 86.116993 -54.333700 7.036897 -12.509393 3.440354 -0.005088 -0.001963 -0.002254 0.079229 -25.658820 0.397473 37.425319 83.685656 42.070218 -0.833800 -16.935796 -3.608986 0.001750 0.000129 0.000775
